Patient4_TMGait_0pt5_01_left_16_EMG.mot
version=1
nRows=36
nColumns=33
inDegrees=no
endheader
time	1LAddLong	2LGlutMax	3LGlutMed	4LIliopsoas	5LSemiMemb	6LBicFemLong	7LRecFem	8LVastMed	9LVastLat	10LGasMed	11LTibAnt	12lTibPost	13LPeroneusLong	14LSol	15LExtDigLong	16LFlexDigLong	17RAddLong	18RGlutMax	19RGlutMed	20RIliopsoas	21RSemiMemb	22RBicFemLong	23RRecFem	24RVastMed	25RVastLat	26RGasMed	27RTibAnt	28RTibPost	29RPeroneusLong	30RSol	31RExtDigLong	32RFlexDigLong
22.765	0	0.086365	0.023956	0.00885	0.054932	-0.014954	-0.001221	0.011444	0.053406	-0.02121	0.00473	-0.003662	0.019073	-0.049438	-0.00351	0.00885	0.037231	-0.092468	-0.056763	-0.022583	0.007324	-0.19745	0.093231	-0.16449	-0.12543	-0.037231	-0.1648	-0.011139	-1.2421	-0.16525	0.000916	0.000458
22.766	0.000763	0.063629	0.00061	0.004425	0.035858	-0.036316	0.007477	0.001373	0.067444	-0.027161	0.006409	0.005493	0.004272	-0.045624	0.015717	0.002899	0.0354	-0.11185	-0.24231	0.014954	-0.016174	-0.09079	0.25192	-0.15793	-0.14664	-0.020752	-0.19226	-0.01236	-1.4577	-0.32227	0.001831	0.001068
22.767	0.007782	0.052032	-0.032654	0.004883	0.015411	0.004578	-0.004425	0.006866	0.060577	-0.038147	0.00885	0.006714	0.002441	-0.044708	-0.013123	0.007019	0.024872	-0.073853	-0.31326	0.11169	-0.06958	0.002747	0.28656	-0.15411	-0.16235	-0.045624	-0.39169	-0.01297	-0.90561	-0.16739	-0.00061	0.00473
22.768	0.015411	0.046997	-0.049896	0.01297	-0.012207	0.009003	-0.007172	0.005188	0.067139	-0.039368	0.024872	0.005188	0.019989	-0.038757	0.010529	-0.000763	0.022278	-0.12146	-0.28427	0.052948	-0.12695	0.054932	0.33752	-0.050964	-0.065308	-0.065308	-0.1767	-0.012054	0.82184	0.074921	-0.000458	-0.002747
22.769	0.018768	0.078583	-0.045929	0.006409	-0.013885	0.021515	-0.00824	-0.00412	0.066376	-0.037689	0.00824	0.000763	0.003204	-0.06424	-0.001831	0.006104	0.00351	-0.066833	-0.23789	-0.026398	-0.034485	0.082703	0.36621	0.041962	-0.07309	-0.055389	0.10803	-0.014343	0.38986	0.14008	-0.000916	-0.006409
22.77	0.009308	0.073395	-0.07782	0.007019	-0.018921	-0.005951	-0.016937	0.000763	0.052643	-0.03891	0.006409	0.002899	-0.005493	-0.078278	-0.005188	0.002594	-0.003204	-0.023499	-0.26215	-0.086365	-0.009003	0.10254	0.25269	0.021973	-0.084534	-0.027161	0.15137	-0.01297	-0.39261	0.19119	0.000916	-0.014038
22.771	0.011597	0.03479	-0.027161	0.01297	0.022736	0.008545	-0.005493	0.007019	0.056458	-0.033112	0.007019	0.002747	-0.000763	-0.06958	-0.007172	-0.001526	0.000153	0.021515	-0.02594	-0.068512	-0.020447	0.090332	-0.013275	0.072632	0.097504	0.004425	0.1619	-0.007019	-0.66437	0.080414	0.002899	-0.013123
22.772	0.010376	0.060425	-0.027466	0.012817	0.028381	0.044403	0.005951	0.00473	0.038452	-0.029297	0.003967	0.00946	-0.001221	-0.081024	0.005188	0.005188	-0.007172	0.056152	0.11032	-0.015259	-0.039063	0.033722	-0.1738	0.12024	0.18097	0.004578	0.19592	-0.009918	-0.30716	-0.029144	0.000305	-0.012207
22.773	0.008545	0.057831	-0.040894	0.015717	0.031281	0.013733	0.004578	0.006104	0.050964	-0.025482	0.020294	0.00061	-0.012207	-0.090637	-0.004883	0.000305	0.014954	0.067596	0.14175	0.014343	-0.051117	-0.016632	0.053558	0.005798	0.11688	-0.033112	0.18204	-0.011139	-0.011139	0.004883	0.000763	-0.01709
22.774	0.007172	0.085297	-0.092926	0.008392	0.018005	0.010071	-0.014801	0.001526	0.059509	-0.035553	0.015411	0.007935	0.004272	-0.093231	-0.006256	-0.000153	0.019684	0.12817	0.10834	-0.011597	-0.045319	0.023956	0.18753	-0.022736	0.09552	-0.021362	0.19287	-0.012207	0.31326	0.009918	0.003662	-0.018005
22.775	0.007172	0.099487	-0.14267	0.011749	0.008545	0.003662	-0.010681	0.005341	0.040588	-0.045471	0.010223	-0.003967	-0.008545	-0.053864	-0.002747	0.006256	0.014954	0.12421	-0.27542	-0.029907	-0.023041	0.016174	0.25421	-0.14801	-0.022583	-0.026855	0.25833	-0.014954	0.43533	0.019531	0.003967	-0.014343
22.776	0.008087	0.046082	-0.09552	0.009918	-0.00061	0.01358	-0.013123	0.006866	0.050812	-0.046997	0.003052	0.000916	-0.026398	-0.045624	0	0.011292	0.007019	0.007019	-0.036011	-0.037231	-0.018158	0.067749	0.12207	-0.46783	-0.10559	-0.046387	0.094147	-0.012054	0.36804	-0.010986	0	-0.009918
22.777	0.003815	0.016785	0.007324	0.020905	-0.024414	0.013123	0.007935	0.006561	0.038452	-0.06073	0.010223	0.012512	-0.035248	-0.016174	0.003204	0.001373	0.001984	-0.035095	0.30365	0.028534	-0.00412	0.089722	-0.050964	-0.41306	-0.074921	0.006714	-0.007324	-0.015411	-0.71274	-0.082245	0.00351	-0.001831
22.778	0.001831	0.032806	-0.028839	0.013123	-0.00412	0.041351	0.001526	0.006714	0.044861	-0.06424	0.024719	0.002441	-0.035248	-0.018921	0.003204	0.009308	0.000458	-0.065002	0.019073	0.088959	-0.007629	0.089111	0.10849	-0.37155	-0.03067	0.02182	-0.071716	-0.028534	0.22476	-0.043488	-0.000305	-0.005188
22.779	-0.002594	0.028534	0.009918	-0.003052	-0.0177	0.023193	0.008087	0.007477	0.037384	-0.062561	-0.003967	0.005188	-0.054932	-0.10834	-0.000153	-0.000763	0.004272	-0.025635	-0.12512	0.068665	0.001221	0.1088	-0.026093	-0.11704	0.18173	0.006104	-0.001526	-0.027618	0.28305	0.13596	-0.00473	-0.001068
22.78	-0.007935	-0.036163	-0.010223	0.001373	-0.010834	0.01236	0.000763	0.008392	0.03418	-0.068207	-0.010681	0.004272	-0.046387	-0.080719	0.000763	0.000763	0.012665	-0.045929	-0.23209	0.041351	0.003052	0.0177	-0.13565	0.25971	0.29373	-0.010223	0.066833	0.007935	0.14481	0.079498	0.000153	-0.006714
22.781	0.011749	0.03006	-0.032043	0.01236	-0.023193	-0.035095	-0.01358	0.002899	0.042419	-0.030365	-0.006561	-0.000458	0.009003	-0.078125	0.010223	-0.003662	0.010223	0.029297	-0.121	0.036316	-0.00824	-0.01358	-0.21561	0.44311	0.27725	0.064697	0.00473	0.029144	-0.35996	0.014496	0.000305	-0.005341
22.782	0.013885	0.032349	-0.042572	0.023499	-0.040588	-0.10941	0.002747	0.003357	0.041199	0.005646	0.013428	0.001221	0.020294	-0.08606	0.009918	-0.002747	0.011292	0.051575	-0.18768	0.012054	-0.021057	-0.10559	-0.21652	0.41367	0.29068	0.028839	-0.031433	-0.015411	-0.64941	0.007172	-0.000305	-0.005493
22.783	0.014038	0.050812	-0.063934	0.005035	0.016327	-0.098724	-0.003204	-0.000458	0.037842	0.001068	0.00061	0.014801	0.009308	-0.079041	0.012665	-0.003967	0.012207	0.10513	0.37552	0.00412	-0.04425	-0.16007	0.012665	0.37323	0.29007	0.000305	-0.16541	-0.02655	-0.92194	-0.006714	-0.000458	-0.007019
22.784	0.020294	0.029297	-0.059052	0.016479	0.064545	-0.042267	-0.000153	-0.001373	0.04715	-0.018768	0.007019	0.004425	0.027008	-0.068207	-0.004425	0.000458	0.018921	0.098724	0.64529	0.00061	-0.04776	-0.11292	0.035248	0.08194	0.19684	0.014648	-0.19898	-0.029907	-0.21652	-0.003052	-0.000458	-0.010071
22.785	0.024872	-0.018158	-0.067139	0.009308	0.06958	0.020294	-0.009003	-0.00351	0.032654	-0.026245	0.004578	0.001221	0.027161	-0.097504	-0.004883	0.00351	0.012512	-0.015106	0.96146	0.001526	-0.040588	-0.050354	0.11749	0.02655	-0.071869	0.018463	-0.14648	0.054474	-0.5983	-0.003052	-0.000458	-0.012207
22.786	0.011292	-0.02121	-0.063324	0.018616	0.024414	0.036621	-0.003815	-0.002747	0.032196	-0.026398	-0.003204	0.002289	-0.00351	-0.13092	-0.00885	0.003967	0.014954	-0.084686	-0.007935	0.073547	-0.033569	0.005646	0.18753	-0.12116	-0.28351	0.026398	-0.27756	0.056	0.77072	-0.20294	0.001221	-0.005035
22.787	0.012054	-0.029449	-0.090485	-0.002441	-0.024109	0.038605	-0.001831	-0.003052	0.027161	0.001526	-0.000153	-0.006256	0.002594	-0.16068	-0.001068	-0.002136	0.009308	-0.039978	-0.21545	0.053558	-0.011902	0.052032	0.1384	-0.092621	-0.17181	0.022583	-0.25375	-0.025482	1.7509	-0.25818	0.013428	-0.001373
22.788	0.007629	-0.019836	-0.079346	0.000458	-0.034943	-0.005798	-0.002899	-0.001068	0.024872	-0.034485	0.00824	0	0.020599	-0.11063	0	0.000305	0.000763	-0.021057	0.20416	0.009766	-0.010986	0.066528	0.29159	0.081787	0.14145	-0.019684	-0.041504	-0.041046	0.7724	-0.02243	0.000458	-0.008545
22.789	0.011139	-0.039215	-0.1001	0.004272	-0.063324	-0.015411	0.003052	-0.003662	0.026398	-0.048065	-0.007172	0.007782	-0.003815	-0.066376	0.009613	-0.009003	0.001831	-0.059509	0.2066	-0.079193	-0.00061	0.069885	0.53909	0.20294	0.19669	-0.064545	0.06485	-0.020752	1.331	0.10574	0.00351	-0.020142
22.79	0.009155	-0.030365	-0.13809	0.005646	-0.011749	-0.020142	-0.009766	0.000305	0.01297	-0.033569	0.012207	0.002441	-0.019836	-0.067139	-0.00824	0.01358	-0.00473	-0.002899	-0.40878	-0.037994	-0.000305	0.015106	0.79254	0.14893	0.090637	-0.042114	0.34042	-0.018463	0.98511	0.080872	0.002594	-0.01358
22.791	0.010071	-0.031433	-0.1683	0.006256	0.02655	0.033417	0.012665	0.006561	0.010986	-0.036621	0.012054	-0.000916	-0.039825	-0.073853	-0.007477	0.007324	-0.01709	-0.013123	-0.28458	-0.061035	0.011292	0.030823	0.59052	0.055695	0.011139	-0.005493	0.51834	-0.029449	-0.93155	0.002289	-0.006561	-0.009003
22.792	0.006714	-0.056152	-0.16312	0.003204	0.016632	0.13062	0.001526	-0.001068	0.005951	-0.019226	0.001526	0.003052	-0.023193	-0.098877	0.000305	-0.005341	-0.024872	0.00946	-0.065918	0.001984	0.017395	0.087433	0.38895	0.083923	-0.006104	0.029144	0.41336	-0.007019	-0.78186	-0.029755	0.000763	-0.002441
22.793	0.006714	-0.032959	-0.062561	0.010376	0.003052	0.16113	0.016632	0.005798	0.001373	-0.009766	0.005951	-0.000763	-0.002441	-0.081635	0.009003	0.000763	-0.005493	0.078888	0.29236	0.071259	0.005951	0.04303	0.56458	-0.068817	-0.26855	0.013123	0.078735	0.05249	-0.85785	0.004425	0.000153	0.001526
22.794	0.006561	-0.036926	-0.12039	0.007629	-0.011444	0.1622	0.001678	0.004578	0.006866	0.013123	0.011749	0.002441	0.022583	-0.071259	0.000305	0.012207	0.006409	0.043182	0.26382	0.12528	-0.003662	0.021057	0.031433	-0.33066	-0.60654	0.016327	-0.77255	-0.00412	-0.71732	-0.052032	-0.001068	-0.002594
22.795	0.009003	-0.026245	-0.10483	0.007172	-0.017853	0.15625	0.019226	0.006714	0.007935	-0.005035	0.005035	-0.022888	0.007782	-0.061188	0.010986	0.005188	0.011292	0.14099	0.53863	0.092316	-0.011597	0.01297	-0.33676	-0.21133	-0.47165	0.029144	-0.91553	-0.015564	0.009613	-0.13107	-0.003967	-0.000458
22.796	0.004425	-0.04837	-0.080109	0.009918	-0.023193	0.066376	-0.001984	0.005951	0.005035	-0.019073	0.011597	0.014191	0.008545	-0.066833	0.007782	0.007629	0.001526	0.005646	0.61264	-0.005188	0.005493	0.014954	-0.61844	0.12848	-0.054779	0.018311	0.007782	-0.011902	0.11887	-0.036163	0.002289	0.001831
22.797	0.006409	-0.082092	-0.008392	0.007324	0.00946	-0.028229	0.014191	0.006561	0.006866	-0.005341	0.000763	-0.002747	-0.018768	-0.079041	0.007172	0.007324	0.00351	-0.049591	-0.046082	-0.014343	-0.001984	0.012207	-0.35721	0.16281	0.06012	0.006409	0.48416	-0.013123	-0.27374	0.002136	-0.001678	0.00351
22.798	0.012054	-0.06546	0.006714	0.026703	0.017242	-0.015564	0.01236	0.007324	0.004578	-0.020599	0.003357	-0.00061	-0.011292	-0.076904	0.002747	0.020294	0.00885	-0.080719	-0.077209	-0.063934	-0.006561	0.011597	-0.2417	0.089417	0.12329	0.00412	0.36972	0.003662	-0.25375	0.022888	0	-0.007935
22.799	0.011139	-0.087891	0.052185	-0.006561	0.003357	0.010071	0.023041	0.001526	0.007935	-0.031128	-0.000153	0.00351	-0.015259	-0.079651	0.007477	0.020447	0.019836	-0.081482	0.21149	-0.019989	-0.003967	0.00824	-0.076904	0.019684	0.009155	0.003052	0.24872	0.003815	-0.25131	0.021362	-0.000458	-0.00824
22.8	0.025787	-0.072784	0.042572	0.013885	-0.01236	0.048065	0.007172	0.000305	0.005646	-0.031586	0.007782	-0.002136	-0.012207	-0.0914	0.002899	0.010986	0.005798	0.039368	-0.20721	0.003204	-0.00061	0.02243	-0.078583	0.045471	-0.033417	0.003204	-0.12116	0.003052	-0.022736	-0.13107	0.002747	-0.005798
